<svg version="1.1" xmlns="http://www.w3.org/2000/svg" xmlns:xlink="http://www.w3.org/1999/xlink" width="48" height="48"><defs><linearGradient x1="16.85465" y1="14.2299" x2="52.35854" y2="54.98331" gradientUnits="userSpaceOnUse" id="color-1"><stop offset="0" stop-color="#000000" stop-opacity="0.3"></stop><stop offset="1" stop-color="#000000" stop-opacity="0"></stop></linearGradient><linearGradient x1="33.625" y1="14.375" x2="43" y2="23.75" gradientUnits="userSpaceOnUse" id="color-2"><stop offset="0" stop-color="#000000" stop-opacity="0.3"></stop><stop offset="1" stop-color="#000000" stop-opacity="0"></stop></linearGradient><filter id="dropshadow-base"><feColorMatrix type="matrix" values="0 0 0 0 0  0 0 0 0 0  0 0 0 0 0  0 0 0 .8 0"></feColorMatrix> <feOffset dx="0" dy="1"></feOffset> <feGaussianBlur stdDeviation="1"></feGaussianBlur> <feComposite in="SourceGraphic"></feComposite></filter><filter id="dropshadow-banner" x="-10%" y="-10%" width="120%" height="130%"><feColorMatrix type="matrix" values="0 0 0 0 0  0 0 0 0 0  0 0 0 0 0  0 0 0 .4 0"></feColorMatrix> <feOffset dx="0" dy="1"></feOffset> <feGaussianBlur stdDeviation="0.5"></feGaussianBlur> <feComposite in="SourceGraphic"></feComposite></filter></defs><g fill="none" fill-rule="nonzero" stroke="none" stroke-width="none" stroke-linecap="butt" stroke-linejoin="miter" stroke-miterlimit="10" stroke-dasharray="" stroke-dashoffset="0" font-family="none" font-weight="none" font-size="none" text-anchor="none" style="mix-blend-mode: normal"><path d="M7,43c-1.10457,0 -2,-0.89543 -2,-2v-34c0,-1.10457 0.89543,-2 2,-2l26,0l10,10v26c0,1.10457 -0.89543,2 -2,2z" id="base 1 5 1 1 1 2" fill="#e53935" stroke-width="1"></path><path d="M28.37788,16.31283c0.36087,-0.47364 0.09272,-1.42844 0.84203,-1.50612c0.19067,0.0123 0.43606,0.09065 0.58392,0.23851l13.19617,13.19617v12.75861c0,1.10457 -0.89543,2 -2,2h-14.14531l-9.71636,-9.71636c-0.14034,-0.34583 -0.30824,-0.69668 -0.28068,-1.0801c0.03759,-2.38072 0.54632,-4.72136 1.10767,-7.0244c0.43354,-1.71413 1.3282,-3.41321 2.85437,-4.38805c0.33482,-0.22393 0.69555,-0.39514 1.07045,-0.52992l-2.60023,-2.60023c-0.53323,-0.53323 -0.84911,-1.27007 -0.9111,-2.02225c-0.11778,-0.39845 0.19547,-0.72174 0.5438,-0.84453c0.19854,0.01514 0.33659,0.08125 0.43593,0.18059l2.69815,2.69815c0.47686,0.08782 0.96663,0.12515 1.42188,0.15858c0.0426,-1.05002 -0.02255,-2.10506 0.09022,-3.15008h0.00002c0.0333,-0.49747 0.6959,-0.57483 0.99412,-0.27661l2.81154,2.81154c0.397,-0.21029 0.74467,-0.49917 1.00341,-0.90351z" fill="url(#color-1)" stroke-width="1"></path><path transform="translate(0.55174,0.55174) scale(0.97701,0.97701)" d="M23.55866,14.46214c0.04104,-0.61303 1.01574,-0.60277 1.14912,-0.04873c0.07695,1.08756 -0.00769,2.18024 0.01026,3.27293c1.34149,-0.13338 2.96513,-0.3078 3.76285,-1.55439c0.36936,-0.48478 0.0949,-1.46205 0.86184,-1.54156c0.31806,0.02052 0.78489,0.22059 0.72589,0.6156c0.01795,0.98496 -0.454,1.96992 -1.26711,2.53934c-1.18759,0.84388 -2.69324,0.99778 -4.10912,1.09525c0,0.31036 0,0.62073 0.00256,0.93366c1.65186,0.08721 3.34988,0.73359 4.35792,2.10329c1.26711,1.61338 1.47744,3.71924 1.80063,5.6712c0.26932,1.91605 0.53352,3.85519 0.44118,5.79432c-0.02565,0.54378 -0.74385,0.59251 -1.05678,0.25906c-0.21289,-0.72846 -0.13594,-1.50309 -0.21546,-2.2495c-0.21033,-2.48548 -0.57456,-4.97096 -1.2312,-7.38205c-0.50787,-1.82884 -2.26489,-3.02926 -4.11682,-3.13699c-0.10003,0.74641 0.34884,2.14177 -0.74385,2.25206c-0.70024,-0.47965 -0.44374,-1.44666 -0.52839,-2.16229c-2.00583,0.21802 -3.50378,1.88271 -4.08347,3.72694c-0.7695,2.6522 -1.19529,5.38905 -1.45948,8.1336c0.03334,0.52326 -0.46939,0.65151 -0.88236,0.7182c-0.14364,-0.35397 -0.31549,-0.71307 -0.28728,-1.10551c0.03847,-2.43674 0.55917,-4.83245 1.13373,-7.18968c0.44374,-1.75446 1.35945,-3.49352 2.92153,-4.4913c0.79771,-0.53352 1.73907,-0.77463 2.67272,-0.93366c0.00256,-0.31293 0.00513,-0.62586 0.00769,-0.94135c-1.33123,-0.06925 -2.75224,-0.20776 -3.86801,-1.01061c-0.77463,-0.54378 -1.23376,-1.45435 -1.31071,-2.38801c-0.12055,-0.40783 0.20007,-0.73872 0.5566,-0.8644c0.90801,0.06925 0.57969,1.1799 1.00548,1.71342c0.80028,1.17477 2.36492,1.30045 3.65768,1.39536c0.0436,-1.07473 -0.02308,-2.15459 0.09234,-3.2242zM22.0171,23.59352c1.52617,-0.2488 3.10621,-0.23854 4.63494,-0.00256c1.026,0.11799 1.33893,1.26454 1.4287,2.12894c0.10003,1.33123 0.1975,2.77019 -0.36423,4.01935c-0.84645,1.16194 -2.49061,1.04139 -3.77311,1.09012c-1.16194,-0.06925 -2.83432,0.13081 -3.36014,-1.20555c-0.53095,-1.47744 -0.57456,-3.14212 -0.16159,-4.65546c0.18211,-0.74641 0.83875,-1.28506 1.59543,-1.37484zM22.08122,24.85806c-0.63612,0.19237 -0.4617,1.03882 -0.64125,1.539c1.80576,0.01539 3.61151,0.00769 5.41727,0.00513c-0.09747,-0.56173 -0.02052,-1.20298 -0.37192,-1.6852c-1.43896,-0.34884 -2.99335,-0.33345 -4.40409,0.14107zM21.45023,27.56413c0.12055,0.64638 0.0949,1.54926 0.8208,1.84423c1.17733,0.38475 2.47778,0.32832 3.68077,0.0949c0.91827,-0.21033 0.82336,-1.31841 0.92853,-2.03917c-1.81089,0.03078 -3.61921,0.05643 -5.43009,0.10003zM19.64961,32.75824c2.60603,-0.3078 5.2608,-0.13851 7.88736,-0.12825c0.45657,0.04617 1.24146,-0.08721 1.30558,0.56686c0.14364,0.47965 -0.3514,0.81054 -0.77976,0.69255c-2.73172,-0.40527 -5.48909,-0.05643 -8.22337,0.10003c-0.7182,0.13594 -0.85414,-1.08243 -0.18981,-1.2312z" fill="none" stroke-width="0"></path><path d="M23.56881,14.68141c0.0401,-0.59894 0.99239,-0.58892 1.1227,-0.04761c0.07518,1.06256 -0.00752,2.13012 0.01002,3.19769c1.31065,-0.13031 2.89697,-0.30072 3.67634,-1.51865c0.36087,-0.47364 0.09272,-1.42844 0.84203,-1.50612c0.31075,0.02005 0.76684,0.21552 0.70921,0.60145c0.01754,0.96231 -0.44357,1.92463 -1.23798,2.48097c-1.16029,0.82448 -2.63133,0.97484 -4.01466,1.07007c0,0.30323 0,0.60646 0.00251,0.91219c1.61388,0.0852 3.27287,0.71672 4.25774,2.05494c1.23798,1.57629 1.44347,3.63374 1.75923,5.54083c0.26313,1.872 0.52125,3.76656 0.43104,5.66111c-0.02506,0.53128 -0.72675,0.57889 -1.03248,0.25311c-0.208,-0.71171 -0.13282,-1.46853 -0.21051,-2.19779c-0.20549,-2.42834 -0.56135,-4.85668 -1.20289,-7.21235c-0.49619,-1.7868 -2.21282,-2.95962 -4.02217,-3.06487c-0.09774,0.72925 0.34082,2.09253 -0.72675,2.20029c-0.68415,-0.46863 -0.43354,-1.4134 -0.51624,-2.11258c-1.95971,0.21301 -3.42323,1.83942 -3.98959,3.64126c-0.75181,2.59123 -1.16781,5.26516 -1.42593,7.94661c0.03258,0.51123 -0.4586,0.63653 -0.86207,0.70169c-0.14034,-0.34583 -0.30824,-0.69668 -0.28068,-1.0801c0.03759,-2.38073 0.54631,-4.72135 1.10766,-7.02439c0.43354,-1.71412 1.32819,-3.41321 2.85436,-4.38805c0.77937,-0.52125 1.69909,-0.75682 2.61128,-0.91219c0.00251,-0.30574 0.00501,-0.61147 0.00752,-0.91971c-1.30063,-0.06766 -2.68897,-0.20299 -3.77909,-0.98737c-0.75682,-0.53128 -1.2054,-1.42092 -1.28058,-2.33311c-0.11778,-0.39846 0.19547,-0.72174 0.54381,-0.84453c0.88713,0.06766 0.56636,1.15277 0.98236,1.67403c0.78188,1.14776 2.31056,1.27056 3.57359,1.36328c0.0426,-1.05003 -0.02255,-2.10506 0.09022,-3.15008zM26.59107,23.60036c1.00241,0.11528 1.30815,1.23547 1.39586,2.08c0.09774,1.30063 0.19296,2.70651 -0.35586,3.92694c-0.82699,1.13523 -2.43335,1.01745 -3.68637,1.06506c-1.13523,-0.06766 -2.76916,0.12781 -3.2829,-1.17783c-0.51875,-1.44347 -0.56135,-3.06988 -0.15788,-4.54844c0.17793,-0.72925 0.81947,-1.25552 1.55875,-1.34323c1.49109,-0.24308 3.0348,-0.23306 4.52839,-0.00251zM21.49883,26.34195c1.76424,0.01504 3.52849,0.00752 5.29273,0.00501c-0.09523,-0.54882 -0.02005,-1.17533 -0.36337,-1.64646c-1.40588,-0.34082 -2.92453,-0.32578 -4.30285,0.13783c-0.62149,0.18795 -0.45108,1.01494 -0.62651,1.50362zM21.50885,27.48219c0.11778,0.63152 0.09272,1.51364 0.80193,1.80183c1.15027,0.3759 2.42082,0.32077 3.59615,0.09272c0.89716,-0.20549 0.80443,-1.2881 0.90718,-1.99229c-1.76926,0.03007 -3.536,0.05513 -5.30526,0.09774zM19.74962,32.5569c2.54612,-0.30072 5.13986,-0.13533 7.70603,-0.1253c0.44607,0.04511 1.21292,-0.0852 1.27557,0.55383c0.14034,0.46863 -0.34333,0.7919 -0.76183,0.67663c-2.66892,-0.39595 -5.3629,-0.05513 -8.03432,0.09774c-0.70169,0.13282 -0.83451,-1.05754 -0.18545,-1.20289z" fill="#ffffff" stroke-width="0"></path><path d="M2,24c0,-12.15026 9.84974,-22 22,-22c12.15026,0 22,9.84974 22,22c0,12.15026 -9.84974,22 -22,22c-12.15026,0 -22,-9.84974 -22,-22z" id="base 1 1 1" fill="none" stroke-width="1"></path><g fill="#000000" stroke-width="1" font-family="Roboto, sans-serif" font-weight="normal" font-size="14" text-anchor="start"><g id="#000000ff 1 1"></g></g><rect x="2" y="2" width="44" height="22" fill="none" stroke-width="1"></rect><path d="M2,24v-22h44v22z" fill="none" stroke-width="1"></path><path d="M2,24v-22h44v22z" fill="none" stroke-width="1"></path><path d="M2,24v-22h44v22z" fill="none" stroke-width="1"></path><path d="M2,24v-22h44v22z" fill="none" stroke-width="1"></path><path d="M33.625,14.375l9.375,0.625v8.75z" fill="url(#color-2)" stroke-width="1"></path><path d="M33,5l10,10h-8c-1,0 -2,-1 -2,-2z" fill="#ff5753" stroke-width="1"></path></g></svg>